<mxGraphModel dx="0" dy="0" grid="1" gridSize="10" guides="1" tooltips="1" connect="1" arrows="1" fold="1" page="0" pageScale="1" background="none" math="0" shadow="0">
  <root>
    <mxCell id="0" />
    <mxCell id="1" parent="0" />
    <mxCell id="node9" parent="1" vertex="1" value="&lt;p style=&quot;margin:0px;margin-top:4px;text-align:center;&quot;&gt;&lt;b&gt;Account&lt;/b&gt;&lt;/p&gt;&lt;hr size=&quot;1&quot;/&gt;&lt;p style=&quot;margin:0 0 0 4px;line-height:1.6;&quot;&gt;+ Account(): &lt;/p&gt;&lt;hr size=&quot;1&quot;/&gt;&lt;p style=&quot;margin:0 0 0 4px;line-height:1.6;&quot;&gt;- password: String&lt;br/&gt;- account: BigDecimal&lt;br/&gt;- availableFunds: BigDecimal&lt;br/&gt;- id: Integer&lt;br/&gt;- avatar: String&lt;br/&gt;- isRider: Boolean&lt;br/&gt;- newPassword: String&lt;br/&gt;- role: String&lt;br/&gt;- token: String&lt;br/&gt;- name: String&lt;br/&gt;- username: String&lt;/p&gt;&lt;hr size=&quot;1&quot;/&gt;&lt;p style=&quot;margin:0 0 0 4px;line-height:1.6;&quot;&gt;+ getIsRider(): Boolean&lt;br/&gt;+ setAccount(BigDecimal): void&lt;br/&gt;+ getToken(): String&lt;br/&gt;+ getAvailableFunds(): BigDecimal&lt;br/&gt;+ setId(Integer): void&lt;br/&gt;+ setRole(String): void&lt;br/&gt;+ setAvatar(String): void&lt;br/&gt;+ setAvailableFunds(BigDecimal): void&lt;br/&gt;+ getPassword(): String&lt;br/&gt;+ getUsername(): String&lt;br/&gt;+ getAccount(): BigDecimal&lt;br/&gt;+ getRole(): String&lt;br/&gt;+ setToken(String): void&lt;br/&gt;+ getNewPassword(): String&lt;br/&gt;+ setPassword(String): void&lt;br/&gt;+ getId(): Integer&lt;br/&gt;+ setUsername(String): void&lt;br/&gt;+ getName(): String&lt;br/&gt;+ setNewPassword(String): void&lt;br/&gt;+ toString(): String&lt;br/&gt;+ setIsRider(Boolean): void&lt;br/&gt;+ getAvatar(): String&lt;br/&gt;+ setName(String): void&lt;/p&gt;" style="verticalAlign=top;align=left;overflow=fill;fontSize=14;fontFamily=Helvetica;html=1;rounded=0;shadow=0;comic=0;labelBackgroundColor=none;strokeWidth=1;">
      <mxGeometry x="-129" y="178" width="204" height="308" as="geometry" />
    </mxCell>
    <mxCell id="node8" parent="1" vertex="1" value="&lt;p style=&quot;margin:0px;margin-top:4px;text-align:center;&quot;&gt;&lt;b&gt;Activity&lt;/b&gt;&lt;/p&gt;&lt;hr size=&quot;1&quot;/&gt;&lt;p style=&quot;margin:0 0 0 4px;line-height:1.6;&quot;&gt;+ Activity(): &lt;/p&gt;&lt;hr size=&quot;1&quot;/&gt;&lt;p style=&quot;margin:0 0 0 4px;line-height:1.6;&quot;&gt;- id: Integer&lt;br/&gt;- end: String&lt;br/&gt;- start: String&lt;br/&gt;- cover: String&lt;br/&gt;- descr: String&lt;br/&gt;- name: String&lt;br/&gt;- address: String&lt;br/&gt;- serialVersionUID: long&lt;br/&gt;- content: String&lt;br/&gt;- status: String&lt;/p&gt;&lt;hr size=&quot;1&quot;/&gt;&lt;p style=&quot;margin:0 0 0 4px;line-height:1.6;&quot;&gt;+ setName(String): void&lt;br/&gt;+ setDescr(String): void&lt;br/&gt;+ setEnd(String): void&lt;br/&gt;+ setContent(String): void&lt;br/&gt;+ getDescr(): String&lt;br/&gt;+ getContent(): String&lt;br/&gt;+ setId(Integer): void&lt;br/&gt;+ getEnd(): String&lt;br/&gt;+ getCover(): String&lt;br/&gt;+ setAddress(String): void&lt;br/&gt;+ setStart(String): void&lt;br/&gt;+ setStatus(String): void&lt;br/&gt;+ getStatus(): String&lt;br/&gt;+ setCover(String): void&lt;br/&gt;+ getName(): String&lt;br/&gt;+ getId(): Integer&lt;br/&gt;+ getStart(): String&lt;br/&gt;+ getAddress(): String&lt;/p&gt;" style="verticalAlign=top;align=left;overflow=fill;fontSize=14;fontFamily=Helvetica;html=1;rounded=0;shadow=0;comic=0;labelBackgroundColor=none;strokeWidth=1;">
      <mxGeometry x="246" y="-170" width="175" height="285" as="geometry" />
    </mxCell>
    <mxCell id="node14" parent="1" vertex="1" value="&lt;p style=&quot;margin:0px;margin-top:4px;text-align:center;&quot;&gt;&lt;b&gt;ActivitySign&lt;/b&gt;&lt;/p&gt;&lt;hr size=&quot;1&quot;/&gt;&lt;p style=&quot;margin:0 0 0 4px;line-height:1.6;&quot;&gt;+ ActivitySign(): &lt;/p&gt;&lt;hr size=&quot;1&quot;/&gt;&lt;p style=&quot;margin:0 0 0 4px;line-height:1.6;&quot;&gt;- userName: String&lt;br/&gt;- reason: String&lt;br/&gt;- id: Integer&lt;br/&gt;- userId: Integer&lt;br/&gt;- phone: String&lt;br/&gt;- status: String&lt;br/&gt;- date: String&lt;br/&gt;- activityName: String&lt;br/&gt;- activityId: Integer&lt;br/&gt;- serialVersionUID: long&lt;/p&gt;&lt;hr size=&quot;1&quot;/&gt;&lt;p style=&quot;margin:0 0 0 4px;line-height:1.6;&quot;&gt;+ getReason(): String&lt;br/&gt;+ getId(): Integer&lt;br/&gt;+ getActivityId(): Integer&lt;br/&gt;+ setUserName(String): void&lt;br/&gt;+ setActivityId(Integer): void&lt;br/&gt;+ setPhone(String): void&lt;br/&gt;+ getActivityName(): String&lt;br/&gt;+ getUserId(): Integer&lt;br/&gt;+ setId(Integer): void&lt;br/&gt;+ setUserId(Integer): void&lt;br/&gt;+ getDate(): String&lt;br/&gt;+ getStatus(): String&lt;br/&gt;+ setStatus(String): void&lt;br/&gt;+ setReason(String): void&lt;br/&gt;+ setDate(String): void&lt;br/&gt;+ setActivityName(String): void&lt;br/&gt;+ getPhone(): String&lt;br/&gt;+ getUserName(): String&lt;/p&gt;" style="verticalAlign=top;align=left;overflow=fill;fontSize=14;fontFamily=Helvetica;html=1;rounded=0;shadow=0;comic=0;labelBackgroundColor=none;strokeWidth=1;">
      <mxGeometry x="126" y="190" width="175" height="285" as="geometry" />
    </mxCell>
    <mxCell id="node6" parent="1" vertex="1" value="&lt;p style=&quot;margin:0px;margin-top:4px;text-align:center;&quot;&gt;&lt;b&gt;Address&lt;/b&gt;&lt;/p&gt;&lt;hr size=&quot;1&quot;/&gt;&lt;p style=&quot;margin:0 0 0 4px;line-height:1.6;&quot;&gt;+ Address(): &lt;/p&gt;&lt;hr size=&quot;1&quot;/&gt;&lt;p style=&quot;margin:0 0 0 4px;line-height:1.6;&quot;&gt;- phone: String&lt;br/&gt;- doorNo: String&lt;br/&gt;- user: String&lt;br/&gt;- id: Integer&lt;br/&gt;- address: String&lt;br/&gt;- userId: Integer&lt;br/&gt;- userName: String&lt;/p&gt;&lt;hr size=&quot;1&quot;/&gt;&lt;p style=&quot;margin:0 0 0 4px;line-height:1.6;&quot;&gt;+ getUserId(): Integer&lt;br/&gt;+ getUserName(): String&lt;br/&gt;+ setUser(String): void&lt;br/&gt;+ getPhone(): String&lt;br/&gt;+ setId(Integer): void&lt;br/&gt;+ setAddress(String): void&lt;br/&gt;+ getDoorNo(): String&lt;br/&gt;+ setUserId(Integer): void&lt;br/&gt;+ setUserName(String): void&lt;br/&gt;+ getId(): Integer&lt;br/&gt;+ setDoorNo(String): void&lt;br/&gt;+ getUser(): String&lt;br/&gt;+ getAddress(): String&lt;br/&gt;+ setPhone(String): void&lt;/p&gt;" style="verticalAlign=top;align=left;overflow=fill;fontSize=14;fontFamily=Helvetica;html=1;rounded=0;shadow=0;comic=0;labelBackgroundColor=none;strokeWidth=1;">
      <mxGeometry x="20" y="-776" width="147" height="216" as="geometry" />
    </mxCell>
    <mxCell id="node13" parent="1" vertex="1" value="&lt;p style=&quot;margin:0px;margin-top:4px;text-align:center;&quot;&gt;&lt;b&gt;Admin&lt;/b&gt;&lt;/p&gt;&lt;hr size=&quot;1&quot;/&gt;&lt;p style=&quot;margin:0 0 0 4px;line-height:1.6;&quot;&gt;+ Admin(): &lt;/p&gt;&lt;hr size=&quot;1&quot;/&gt;&lt;p style=&quot;margin:0 0 0 4px;line-height:1.6;&quot;&gt;- id: Integer&lt;br/&gt;- serialVersionUID: long&lt;br/&gt;- email: String&lt;br/&gt;- username: String&lt;br/&gt;- password: String&lt;br/&gt;- name: String&lt;br/&gt;- phone: String&lt;br/&gt;- avatar: String&lt;br/&gt;- role: String&lt;/p&gt;&lt;hr size=&quot;1&quot;/&gt;&lt;p style=&quot;margin:0 0 0 4px;line-height:1.6;&quot;&gt;+ setUsername(String): void&lt;br/&gt;+ setEmail(String): void&lt;br/&gt;+ getRole(): String&lt;br/&gt;+ getPhone(): String&lt;br/&gt;+ setPhone(String): void&lt;br/&gt;+ getPassword(): String&lt;br/&gt;+ getId(): Integer&lt;br/&gt;+ setRole(String): void&lt;br/&gt;+ getName(): String&lt;br/&gt;+ getUsername(): String&lt;br/&gt;+ setPassword(String): void&lt;br/&gt;+ getAvatar(): String&lt;br/&gt;+ setName(String): void&lt;br/&gt;+ getEmail(): String&lt;br/&gt;+ toString(): String&lt;br/&gt;+ setAvatar(String): void&lt;br/&gt;+ setId(Integer): void&lt;/p&gt;" style="verticalAlign=top;align=left;overflow=fill;fontSize=14;fontFamily=Helvetica;html=1;rounded=0;shadow=0;comic=0;labelBackgroundColor=none;strokeWidth=1;">
      <mxGeometry x="-114" y="1281" width="175" height="262" as="geometry" />
    </mxCell>
    <mxCell id="node3" parent="1" vertex="1" value="&lt;p style=&quot;margin:0px;margin-top:4px;text-align:center;&quot;&gt;&lt;b&gt;Category&lt;/b&gt;&lt;/p&gt;&lt;hr size=&quot;1&quot;/&gt;&lt;p style=&quot;margin:0 0 0 4px;line-height:1.6;&quot;&gt;+ Category(): &lt;/p&gt;&lt;hr size=&quot;1&quot;/&gt;&lt;p style=&quot;margin:0 0 0 4px;line-height:1.6;&quot;&gt;- id: Integer&lt;br/&gt;- name: String&lt;/p&gt;&lt;hr size=&quot;1&quot;/&gt;&lt;p style=&quot;margin:0 0 0 4px;line-height:1.6;&quot;&gt;+ setName(String): void&lt;br/&gt;+ getName(): String&lt;br/&gt;+ getId(): Integer&lt;br/&gt;+ setId(Integer): void&lt;/p&gt;" style="verticalAlign=top;align=left;overflow=fill;fontSize=14;fontFamily=Helvetica;html=1;rounded=0;shadow=0;comic=0;labelBackgroundColor=none;strokeWidth=1;">
      <mxGeometry x="513" y="-78" width="120" height="109" as="geometry" />
    </mxCell>
    <mxCell id="node15" parent="1" vertex="1" value="&lt;p style=&quot;margin:0px;margin-top:4px;text-align:center;&quot;&gt;&lt;b&gt;Certification&lt;/b&gt;&lt;/p&gt;&lt;hr size=&quot;1&quot;/&gt;&lt;p style=&quot;margin:0 0 0 4px;line-height:1.6;&quot;&gt;+ Certification(): &lt;/p&gt;&lt;hr size=&quot;1&quot;/&gt;&lt;p style=&quot;margin:0 0 0 4px;line-height:1.6;&quot;&gt;- address: String&lt;br/&gt;- avatar: String&lt;br/&gt;- card1: String&lt;br/&gt;- cardNo: String&lt;br/&gt;- name: String&lt;br/&gt;- id: Integer&lt;br/&gt;- phone: String&lt;br/&gt;- card2: String&lt;br/&gt;- reason: String&lt;br/&gt;- status: String&lt;br/&gt;- userId: Integer&lt;/p&gt;&lt;hr size=&quot;1&quot;/&gt;&lt;p style=&quot;margin:0 0 0 4px;line-height:1.6;&quot;&gt;+ setUserId(Integer): void&lt;br/&gt;+ getStatus(): String&lt;br/&gt;+ setCard1(String): void&lt;br/&gt;+ setStatus(String): void&lt;br/&gt;+ setAvatar(String): void&lt;br/&gt;+ setName(String): void&lt;br/&gt;+ getAvatar(): String&lt;br/&gt;+ getReason(): String&lt;br/&gt;+ getCard2(): String&lt;br/&gt;+ getCardNo(): String&lt;br/&gt;+ setReason(String): void&lt;br/&gt;+ getName(): String&lt;br/&gt;+ setCard2(String): void&lt;br/&gt;+ getPhone(): String&lt;br/&gt;+ setPhone(String): void&lt;br/&gt;+ setAddress(String): void&lt;br/&gt;+ getUserId(): Integer&lt;br/&gt;+ getId(): Integer&lt;br/&gt;+ setId(Integer): void&lt;br/&gt;+ getCard1(): String&lt;br/&gt;+ setCardNo(String): void&lt;br/&gt;+ getAddress(): String&lt;/p&gt;" style="verticalAlign=top;align=left;overflow=fill;fontSize=14;fontFamily=Helvetica;html=1;rounded=0;shadow=0;comic=0;labelBackgroundColor=none;strokeWidth=1;">
      <mxGeometry x="24" y="-182" width="139" height="308" as="geometry" />
    </mxCell>
    <mxCell id="node4" parent="1" vertex="1" value="&lt;p style=&quot;margin:0px;margin-top:4px;text-align:center;&quot;&gt;&lt;b&gt;Comment&lt;/b&gt;&lt;/p&gt;&lt;hr size=&quot;1&quot;/&gt;&lt;p style=&quot;margin:0 0 0 4px;line-height:1.6;&quot;&gt;+ Comment(): &lt;/p&gt;&lt;hr size=&quot;1&quot;/&gt;&lt;p style=&quot;margin:0 0 0 4px;line-height:1.6;&quot;&gt;- pid: Integer&lt;br/&gt;- replyUser: String&lt;br/&gt;- fid: Integer&lt;br/&gt;- id: Integer&lt;br/&gt;- avatar: String&lt;br/&gt;- serialVersionUID: long&lt;br/&gt;- userName: String&lt;br/&gt;- userId: Integer&lt;br/&gt;- time: String&lt;br/&gt;- rootId: Integer&lt;br/&gt;- content: String&lt;br/&gt;- module: String&lt;br/&gt;- children: List&amp;lt;Comment&amp;gt;&lt;/p&gt;&lt;hr size=&quot;1&quot;/&gt;&lt;p style=&quot;margin:0 0 0 4px;line-height:1.6;&quot;&gt;+ getContent(): String&lt;br/&gt;+ getPid(): Integer&lt;br/&gt;+ setContent(String): void&lt;br/&gt;+ getTime(): String&lt;br/&gt;+ getRootId(): Integer&lt;br/&gt;+ setTime(String): void&lt;br/&gt;+ setUserName(String): void&lt;br/&gt;+ getUserId(): Integer&lt;br/&gt;+ setId(Integer): void&lt;br/&gt;+ getAvatar(): String&lt;br/&gt;+ setAvatar(String): void&lt;br/&gt;+ getFid(): Integer&lt;br/&gt;+ getReplyUser(): String&lt;br/&gt;+ getId(): Integer&lt;br/&gt;+ setPid(Integer): void&lt;br/&gt;+ getUserName(): String&lt;br/&gt;+ setModule(String): void&lt;br/&gt;+ setRootId(Integer): void&lt;br/&gt;+ setReplyUser(String): void&lt;br/&gt;+ getModule(): String&lt;br/&gt;+ setUserId(Integer): void&lt;br/&gt;+ setChildren(List&amp;lt;Comment&amp;gt;): void&lt;br/&gt;+ getChildren(): List&amp;lt;Comment&amp;gt;&lt;br/&gt;+ setFid(Integer): void&lt;/p&gt;" style="verticalAlign=top;align=left;overflow=fill;fontSize=14;fontFamily=Helvetica;html=1;rounded=0;shadow=0;comic=0;labelBackgroundColor=none;strokeWidth=1;">
      <mxGeometry x="356" y="155" width="195" height="354" as="geometry" />
    </mxCell>
    <mxCell id="node16" parent="1" vertex="1" value="&lt;p style=&quot;margin:0px;margin-top:4px;text-align:center;&quot;&gt;&lt;b&gt;Evaluate&lt;/b&gt;&lt;/p&gt;&lt;hr size=&quot;1&quot;/&gt;&lt;p style=&quot;margin:0 0 0 4px;line-height:1.6;&quot;&gt;+ Evaluate(): &lt;/p&gt;&lt;hr size=&quot;1&quot;/&gt;&lt;p style=&quot;margin:0 0 0 4px;line-height:1.6;&quot;&gt;- content: String&lt;br/&gt;- star: Double&lt;br/&gt;- userId: Integer&lt;br/&gt;- userName: String&lt;br/&gt;- orderId: Integer&lt;br/&gt;- id: Integer&lt;br/&gt;- time: String&lt;br/&gt;- acceptName: String&lt;br/&gt;- acceptId: Integer&lt;br/&gt;- orderNo: String&lt;/p&gt;&lt;hr size=&quot;1&quot;/&gt;&lt;p style=&quot;margin:0 0 0 4px;line-height:1.6;&quot;&gt;+ getContent(): String&lt;br/&gt;+ setStar(Double): void&lt;br/&gt;+ setUserName(String): void&lt;br/&gt;+ setAcceptName(String): void&lt;br/&gt;+ setOrderId(Integer): void&lt;br/&gt;+ setTime(String): void&lt;br/&gt;+ getUserName(): String&lt;br/&gt;+ getStar(): Double&lt;br/&gt;+ getOrderNo(): String&lt;br/&gt;+ setAcceptId(Integer): void&lt;br/&gt;+ setOrderNo(String): void&lt;br/&gt;+ getId(): Integer&lt;br/&gt;+ getUserId(): Integer&lt;br/&gt;+ setUserId(Integer): void&lt;br/&gt;+ getAcceptId(): Integer&lt;br/&gt;+ getTime(): String&lt;br/&gt;+ getOrderId(): Integer&lt;br/&gt;+ getAcceptName(): String&lt;br/&gt;+ setId(Integer): void&lt;br/&gt;+ setContent(String): void&lt;/p&gt;" style="verticalAlign=top;align=left;overflow=fill;fontSize=14;fontFamily=Helvetica;html=1;rounded=0;shadow=0;comic=0;labelBackgroundColor=none;strokeWidth=1;">
      <mxGeometry x="13" y="730" width="161" height="285" as="geometry" />
    </mxCell>
    <mxCell id="node1" parent="1" vertex="1" value="&lt;p style=&quot;margin:0px;margin-top:4px;text-align:center;&quot;&gt;&lt;b&gt;News&lt;/b&gt;&lt;/p&gt;&lt;hr size=&quot;1&quot;/&gt;&lt;p style=&quot;margin:0 0 0 4px;line-height:1.6;&quot;&gt;+ News(): &lt;/p&gt;&lt;hr size=&quot;1&quot;/&gt;&lt;p style=&quot;margin:0 0 0 4px;line-height:1.6;&quot;&gt;- category: String&lt;br/&gt;- serialVersionUID: long&lt;br/&gt;- count: Integer&lt;br/&gt;- descr: String&lt;br/&gt;- title: String&lt;br/&gt;- content: String&lt;br/&gt;- cover: String&lt;br/&gt;- id: Integer&lt;br/&gt;- time: String&lt;/p&gt;&lt;hr size=&quot;1&quot;/&gt;&lt;p style=&quot;margin:0 0 0 4px;line-height:1.6;&quot;&gt;+ getTitle(): String&lt;br/&gt;+ getTime(): String&lt;br/&gt;+ setCount(Integer): void&lt;br/&gt;+ setCategory(String): void&lt;br/&gt;+ getCover(): String&lt;br/&gt;+ setId(Integer): void&lt;br/&gt;+ setTime(String): void&lt;br/&gt;+ getDescr(): String&lt;br/&gt;+ getContent(): String&lt;br/&gt;+ setCover(String): void&lt;br/&gt;+ setContent(String): void&lt;br/&gt;+ setTitle(String): void&lt;br/&gt;+ setDescr(String): void&lt;br/&gt;+ getCategory(): String&lt;br/&gt;+ getCount(): Integer&lt;br/&gt;+ getId(): Integer&lt;/p&gt;" style="verticalAlign=top;align=left;overflow=fill;fontSize=14;fontFamily=Helvetica;html=1;rounded=0;shadow=0;comic=0;labelBackgroundColor=none;strokeWidth=1;">
      <mxGeometry x="226" y="-799" width="175" height="262" as="geometry" />
    </mxCell>
    <mxCell id="node11" parent="1" vertex="1" value="&lt;p style=&quot;margin:0px;margin-top:4px;text-align:center;&quot;&gt;&lt;b&gt;Notice&lt;/b&gt;&lt;/p&gt;&lt;hr size=&quot;1&quot;/&gt;&lt;p style=&quot;margin:0 0 0 4px;line-height:1.6;&quot;&gt;+ Notice(): &lt;/p&gt;&lt;hr size=&quot;1&quot;/&gt;&lt;p style=&quot;margin:0 0 0 4px;line-height:1.6;&quot;&gt;- title: String&lt;br/&gt;- serialVersionUID: long&lt;br/&gt;- user: String&lt;br/&gt;- time: String&lt;br/&gt;- id: Integer&lt;br/&gt;- content: String&lt;/p&gt;&lt;hr size=&quot;1&quot;/&gt;&lt;p style=&quot;margin:0 0 0 4px;line-height:1.6;&quot;&gt;+ setId(Integer): void&lt;br/&gt;+ setUser(String): void&lt;br/&gt;+ setTitle(String): void&lt;br/&gt;+ getUser(): String&lt;br/&gt;+ setTime(String): void&lt;br/&gt;+ getId(): Integer&lt;br/&gt;+ getTitle(): String&lt;br/&gt;+ getTime(): String&lt;br/&gt;+ setContent(String): void&lt;br/&gt;+ getContent(): String&lt;/p&gt;" style="verticalAlign=top;align=left;overflow=fill;fontSize=14;fontFamily=Helvetica;html=1;rounded=0;shadow=0;comic=0;labelBackgroundColor=none;strokeWidth=1;">
      <mxGeometry x="126" y="1316" width="175" height="193" as="geometry" />
    </mxCell>
    <mxCell id="node10" parent="1" vertex="1" value="&lt;p style=&quot;margin:0px;margin-top:4px;text-align:center;&quot;&gt;&lt;b&gt;NurseHouse&lt;/b&gt;&lt;/p&gt;&lt;hr size=&quot;1&quot;/&gt;&lt;p style=&quot;margin:0 0 0 4px;line-height:1.6;&quot;&gt;+ NurseHouse(): &lt;/p&gt;&lt;hr size=&quot;1&quot;/&gt;&lt;p style=&quot;margin:0 0 0 4px;line-height:1.6;&quot;&gt;- count: Integer&lt;br/&gt;- date: String&lt;br/&gt;- id: Integer&lt;br/&gt;- longitude: String&lt;br/&gt;- content: String&lt;br/&gt;- latitude: String&lt;br/&gt;- price: String&lt;br/&gt;- address: String&lt;br/&gt;- phone: String&lt;br/&gt;- serialVersionUID: long&lt;br/&gt;- beds: String&lt;br/&gt;- area: String&lt;br/&gt;- nature: String&lt;br/&gt;- type: String&lt;br/&gt;- tags: String&lt;br/&gt;- name: String&lt;br/&gt;- img: String&lt;/p&gt;&lt;hr size=&quot;1&quot;/&gt;&lt;p style=&quot;margin:0 0 0 4px;line-height:1.6;&quot;&gt;+ getDate(): String&lt;br/&gt;+ setLatitude(String): void&lt;br/&gt;+ setId(Integer): void&lt;br/&gt;+ getPhone(): String&lt;br/&gt;+ setCount(Integer): void&lt;br/&gt;+ setContent(String): void&lt;br/&gt;+ setName(String): void&lt;br/&gt;+ getId(): Integer&lt;br/&gt;+ setAddress(String): void&lt;br/&gt;+ getBeds(): String&lt;br/&gt;+ setNature(String): void&lt;br/&gt;+ getContent(): String&lt;br/&gt;+ getType(): String&lt;br/&gt;+ setTags(String): void&lt;br/&gt;+ getNature(): String&lt;br/&gt;+ getImg(): String&lt;br/&gt;+ setBeds(String): void&lt;br/&gt;+ getLongitude(): String&lt;br/&gt;+ getPrice(): String&lt;br/&gt;+ setImg(String): void&lt;br/&gt;+ setPrice(String): void&lt;br/&gt;+ setLongitude(String): void&lt;br/&gt;+ getAddress(): String&lt;br/&gt;+ getArea(): String&lt;br/&gt;+ setDate(String): void&lt;br/&gt;+ setPhone(String): void&lt;br/&gt;+ setType(String): void&lt;br/&gt;+ getCount(): Integer&lt;br/&gt;+ setArea(String): void&lt;br/&gt;+ getLatitude(): String&lt;br/&gt;+ getName(): String&lt;br/&gt;+ getTags(): String&lt;/p&gt;" style="verticalAlign=top;align=left;overflow=fill;fontSize=14;fontFamily=Helvetica;html=1;rounded=0;shadow=0;comic=0;labelBackgroundColor=none;strokeWidth=1;">
      <mxGeometry x="246" y="649" width="175" height="446" as="geometry" />
    </mxCell>
    <mxCell id="node7" parent="1" vertex="1" value="&lt;p style=&quot;margin:0px;margin-top:4px;text-align:center;&quot;&gt;&lt;b&gt;Orders&lt;/b&gt;&lt;/p&gt;&lt;hr size=&quot;1&quot;/&gt;&lt;p style=&quot;margin:0 0 0 4px;line-height:1.6;&quot;&gt;+ Orders(): &lt;/p&gt;&lt;hr size=&quot;1&quot;/&gt;&lt;p style=&quot;margin:0 0 0 4px;line-height:1.6;&quot;&gt;- certification: Certification&lt;br/&gt;- orderNo: String&lt;br/&gt;- status: String&lt;br/&gt;- time: String&lt;br/&gt;- type: String&lt;br/&gt;- price: Double&lt;br/&gt;- acceptName: String&lt;br/&gt;- acceptTime: String&lt;br/&gt;- acceptId: Integer&lt;br/&gt;- address: Address&lt;br/&gt;- targetAddress: Address&lt;br/&gt;- comment: String&lt;br/&gt;- range: Integer&lt;br/&gt;- name: String&lt;br/&gt;- userId: Integer&lt;br/&gt;- descr: String&lt;br/&gt;- weight: Double&lt;br/&gt;- id: Integer&lt;br/&gt;- userName: String&lt;br/&gt;- img: String&lt;br/&gt;- addressId: Integer&lt;br/&gt;- targetId: Integer&lt;/p&gt;&lt;hr size=&quot;1&quot;/&gt;&lt;p style=&quot;margin:0 0 0 4px;line-height:1.6;&quot;&gt;+ setAcceptName(String): void&lt;br/&gt;+ setTime(String): void&lt;br/&gt;+ setUserId(Integer): void&lt;br/&gt;+ setOrderNo(String): void&lt;br/&gt;+ setType(String): void&lt;br/&gt;+ getAddress(): Address&lt;br/&gt;+ setTargetId(Integer): void&lt;br/&gt;+ setId(Integer): void&lt;br/&gt;+ setStatus(String): void&lt;br/&gt;+ getTargetAddress(): Address&lt;br/&gt;+ toString(): String&lt;br/&gt;+ getId(): Integer&lt;br/&gt;+ setImg(String): void&lt;br/&gt;+ getWeight(): Double&lt;br/&gt;+ getUserName(): String&lt;br/&gt;+ setPrice(Double): void&lt;br/&gt;+ setUserName(String): void&lt;br/&gt;+ setDescr(String): void&lt;br/&gt;+ getUserId(): Integer&lt;br/&gt;+ setTargetAddress(Address): void&lt;br/&gt;+ getAcceptName(): String&lt;br/&gt;+ getName(): String&lt;br/&gt;+ setCertification(Certification): void&lt;br/&gt;+ getTargetId(): Integer&lt;br/&gt;+ getTime(): String&lt;br/&gt;+ getStatus(): String&lt;br/&gt;+ setName(String): void&lt;br/&gt;+ getType(): String&lt;br/&gt;+ setAddressId(Integer): void&lt;br/&gt;+ getOrderNo(): String&lt;br/&gt;+ setAcceptId(Integer): void&lt;br/&gt;+ getAddressId(): Integer&lt;br/&gt;+ getComment(): String&lt;br/&gt;+ getAcceptId(): Integer&lt;br/&gt;+ getRange(): Integer&lt;br/&gt;+ setRange(Integer): void&lt;br/&gt;+ getDescr(): String&lt;br/&gt;+ setComment(String): void&lt;br/&gt;+ getCertification(): Certification&lt;br/&gt;+ setAddress(Address): void&lt;br/&gt;+ getPrice(): Double&lt;br/&gt;+ getImg(): String&lt;br/&gt;+ setWeight(Double): void&lt;br/&gt;+ setAcceptTime(String): void&lt;br/&gt;+ getAcceptTime(): String&lt;/p&gt;" style="verticalAlign=top;align=left;overflow=fill;fontSize=14;fontFamily=Helvetica;html=1;rounded=0;shadow=0;comic=0;labelBackgroundColor=none;strokeWidth=1;">
      <mxGeometry x="477" y="592" width="193" height="561" as="geometry" />
    </mxCell>
    <mxCell id="node5" parent="1" vertex="1" value="&lt;p style=&quot;margin:0px;margin-top:4px;text-align:center;&quot;&gt;&lt;b&gt;Records&lt;/b&gt;&lt;/p&gt;&lt;hr size=&quot;1&quot;/&gt;&lt;p style=&quot;margin:0 0 0 4px;line-height:1.6;&quot;&gt;+ Records(): &lt;/p&gt;&lt;hr size=&quot;1&quot;/&gt;&lt;p style=&quot;margin:0 0 0 4px;line-height:1.6;&quot;&gt;- content: String&lt;br/&gt;- acceptId: Integer&lt;br/&gt;- acceptName: String&lt;br/&gt;- userId: Integer&lt;br/&gt;- time: String&lt;br/&gt;- userName: String&lt;br/&gt;- money: BigDecimal&lt;br/&gt;- type: String&lt;br/&gt;- id: Integer&lt;/p&gt;&lt;hr size=&quot;1&quot;/&gt;&lt;p style=&quot;margin:0 0 0 4px;line-height:1.6;&quot;&gt;+ getAcceptId(): Integer&lt;br/&gt;+ getUserName(): String&lt;br/&gt;+ getUserId(): Integer&lt;br/&gt;+ getContent(): String&lt;br/&gt;+ setUserId(Integer): void&lt;br/&gt;+ setAcceptId(Integer): void&lt;br/&gt;+ getType(): String&lt;br/&gt;+ setUserName(String): void&lt;br/&gt;+ setType(String): void&lt;br/&gt;+ getAcceptName(): String&lt;br/&gt;+ setMoney(BigDecimal): void&lt;br/&gt;+ getTime(): String&lt;br/&gt;+ setContent(String): void&lt;br/&gt;+ getMoney(): BigDecimal&lt;br/&gt;+ getId(): Integer&lt;br/&gt;+ setTime(String): void&lt;br/&gt;+ setId(Integer): void&lt;br/&gt;+ setAcceptName(String): void&lt;/p&gt;" style="verticalAlign=top;align=left;overflow=fill;fontSize=14;fontFamily=Helvetica;html=1;rounded=0;shadow=0;comic=0;labelBackgroundColor=none;strokeWidth=1;">
      <mxGeometry x="113" y="-499" width="161" height="262" as="geometry" />
    </mxCell>
    <mxCell id="node12" parent="1" vertex="1" value="&lt;p style=&quot;margin:0px;margin-top:4px;text-align:center;&quot;&gt;&lt;b&gt;Reserve&lt;/b&gt;&lt;/p&gt;&lt;hr size=&quot;1&quot;/&gt;&lt;p style=&quot;margin:0 0 0 4px;line-height:1.6;&quot;&gt;+ Reserve(): &lt;/p&gt;&lt;hr size=&quot;1&quot;/&gt;&lt;p style=&quot;margin:0 0 0 4px;line-height:1.6;&quot;&gt;- serialVersionUID: long&lt;br/&gt;- userId: Integer&lt;br/&gt;- status: String&lt;br/&gt;- userName: String&lt;br/&gt;- serveName: String&lt;br/&gt;- serveId: Integer&lt;br/&gt;- time: String&lt;br/&gt;- reason: String&lt;br/&gt;- id: Integer&lt;/p&gt;&lt;hr size=&quot;1&quot;/&gt;&lt;p style=&quot;margin:0 0 0 4px;line-height:1.6;&quot;&gt;+ getUserId(): Integer&lt;br/&gt;+ getId(): Integer&lt;br/&gt;+ setServeName(String): void&lt;br/&gt;+ getServeId(): Integer&lt;br/&gt;+ getReason(): String&lt;br/&gt;+ setReason(String): void&lt;br/&gt;+ setUserName(String): void&lt;br/&gt;+ setTime(String): void&lt;br/&gt;+ getUserName(): String&lt;br/&gt;+ getTime(): String&lt;br/&gt;+ setServeId(Integer): void&lt;br/&gt;+ setId(Integer): void&lt;br/&gt;+ setUserId(Integer): void&lt;br/&gt;+ setStatus(String): void&lt;br/&gt;+ getServeName(): String&lt;br/&gt;+ getStatus(): String&lt;/p&gt;" style="verticalAlign=top;align=left;overflow=fill;fontSize=14;fontFamily=Helvetica;html=1;rounded=0;shadow=0;comic=0;labelBackgroundColor=none;strokeWidth=1;">
      <mxGeometry x="-114" y="-499" width="175" height="262" as="geometry" />
    </mxCell>
    <mxCell id="node0" parent="1" vertex="1" value="&lt;p style=&quot;margin:0px;margin-top:4px;text-align:center;&quot;&gt;&lt;b&gt;Serve&lt;/b&gt;&lt;/p&gt;&lt;hr size=&quot;1&quot;/&gt;&lt;p style=&quot;margin:0 0 0 4px;line-height:1.6;&quot;&gt;+ Serve(): &lt;/p&gt;&lt;hr size=&quot;1&quot;/&gt;&lt;p style=&quot;margin:0 0 0 4px;line-height:1.6;&quot;&gt;- id: Integer&lt;br/&gt;- date: String&lt;br/&gt;- cover: String&lt;br/&gt;- descr: String&lt;br/&gt;- serialVersionUID: long&lt;br/&gt;- name: String&lt;/p&gt;&lt;hr size=&quot;1&quot;/&gt;&lt;p style=&quot;margin:0 0 0 4px;line-height:1.6;&quot;&gt;+ getName(): String&lt;br/&gt;+ getDate(): String&lt;br/&gt;+ setCover(String): void&lt;br/&gt;+ getDescr(): String&lt;br/&gt;+ setDescr(String): void&lt;br/&gt;+ setId(Integer): void&lt;br/&gt;+ getCover(): String&lt;br/&gt;+ setName(String): void&lt;br/&gt;+ setDate(String): void&lt;br/&gt;+ getId(): Integer&lt;/p&gt;" style="verticalAlign=top;align=left;overflow=fill;fontSize=14;fontFamily=Helvetica;html=1;rounded=0;shadow=0;comic=0;labelBackgroundColor=none;strokeWidth=1;">
      <mxGeometry x="346" y="-464" width="175" height="193" as="geometry" />
    </mxCell>
    <mxCell id="node2" parent="1" vertex="1" value="&lt;p style=&quot;margin:0px;margin-top:4px;text-align:center;&quot;&gt;&lt;b&gt;User&lt;/b&gt;&lt;/p&gt;&lt;hr size=&quot;1&quot;/&gt;&lt;p style=&quot;margin:0 0 0 4px;line-height:1.6;&quot;&gt;+ User(): &lt;/p&gt;&lt;hr size=&quot;1&quot;/&gt;&lt;p style=&quot;margin:0 0 0 4px;line-height:1.6;&quot;&gt;- availableFunds: BigDecimal&lt;br/&gt;- sex: String&lt;br/&gt;- registerTime: Date&lt;br/&gt;- id: Integer&lt;br/&gt;- phone: String&lt;br/&gt;- accountAddress: String&lt;br/&gt;- status: Integer&lt;br/&gt;- account: BigDecimal&lt;br/&gt;- updateTime: Date&lt;br/&gt;- idNumber: String&lt;br/&gt;- loginTime: Date&lt;br/&gt;- name: String&lt;br/&gt;- username: String&lt;br/&gt;- age: Integer&lt;br/&gt;- role: String&lt;br/&gt;- avatar: String&lt;br/&gt;- password: String&lt;/p&gt;&lt;hr size=&quot;1&quot;/&gt;&lt;p style=&quot;margin:0 0 0 4px;line-height:1.6;&quot;&gt;+ setId(Integer): void&lt;br/&gt;+ getIdNumber(): String&lt;br/&gt;+ getPassword(): String&lt;br/&gt;+ setPassword(String): void&lt;br/&gt;+ setPhone(String): void&lt;br/&gt;+ setAge(Integer): void&lt;br/&gt;+ getLoginTime(): Date&lt;br/&gt;+ getRegisterTime(): Date&lt;br/&gt;+ getSex(): String&lt;br/&gt;+ getId(): Integer&lt;br/&gt;+ setRegisterTime(Date): void&lt;br/&gt;+ setAvailableFunds(BigDecimal): void&lt;br/&gt;+ setRole(String): void&lt;br/&gt;+ getName(): String&lt;br/&gt;+ getPhone(): String&lt;br/&gt;+ setAccount(BigDecimal): void&lt;br/&gt;+ setUsername(String): void&lt;br/&gt;+ getAccountAddress(): String&lt;br/&gt;+ setLoginTime(Date): void&lt;br/&gt;+ setAvatar(String): void&lt;br/&gt;+ getAge(): Integer&lt;br/&gt;+ setStatus(Integer): void&lt;br/&gt;+ getUpdateTime(): Date&lt;br/&gt;+ setUpdateTime(Date): void&lt;br/&gt;+ getRole(): String&lt;br/&gt;+ setSex(String): void&lt;br/&gt;+ getUsername(): String&lt;br/&gt;+ setAccountAddress(String): void&lt;br/&gt;+ setName(String): void&lt;br/&gt;+ getStatus(): Integer&lt;br/&gt;+ getAvailableFunds(): BigDecimal&lt;br/&gt;+ toString(): String&lt;br/&gt;+ getAvatar(): String&lt;br/&gt;+ setIdNumber(String): void&lt;br/&gt;+ getAccount(): BigDecimal&lt;/p&gt;" style="verticalAlign=top;align=left;overflow=fill;fontSize=14;fontFamily=Helvetica;html=1;rounded=0;shadow=0;comic=0;labelBackgroundColor=none;strokeWidth=1;">
      <mxGeometry x="351" y="1189" width="204" height="446" as="geometry" />
    </mxCell>
    <mxCell id="edge1" edge="1" value="" parent="1" source="node13" target="node9" style="html=1;rounded=1;edgeStyle=orthogonalEdgeStyle;dashed=0;startArrow=none;endArrow=block;endSize=12;strokeColor=#000082;exitX=0.500;exitY=0.000;exitDx=0;exitDy=0;entryX=0.500;entryY=1.000;entryDx=0;entryDy=0;">
      <mxGeometry width="50" height="50" relative="1" as="geometry">
        <Array as="points" />
      </mxGeometry>
    </mxCell>
    <mxCell id="edge0" edge="1" value="" parent="1" source="node2" target="node9" style="html=1;rounded=1;edgeStyle=orthogonalEdgeStyle;dashed=0;startArrow=none;endArrow=block;endSize=12;strokeColor=#000082;exitX=0.500;exitY=0.000;exitDx=0;exitDy=0;entryX=0.500;entryY=1.000;entryDx=0;entryDy=0;">
      <mxGeometry width="50" height="50" relative="1" as="geometry">
        <Array as="points">
          <mxPoint x="453" y="632" />
          <mxPoint x="-27" y="632" />
        </Array>
      </mxGeometry>
    </mxCell>
  </root>
</mxGraphModel>